<svg xmlns="http://www.w3.org/2000/svg" xmlns:xlink="http://www.w3.org/1999/xlink" fill="none" version="1.1" width="40" height="40" viewBox="0 0 40 40"><defs><clipPath id="master_svg0_564_457"><rect x="0" y="0" width="40" height="40" rx="0"/></clipPath><linearGradient x1="0.20550201833248138" y1="0.9260420203208923" x2="0.5413197638252575" y2="-0.03873296477337648" id="master_svg1_539_369"><stop offset="0%" stop-color="#00C4FF" stop-opacity="1"/><stop offset="49.000000953674316%" stop-color="#0083FF" stop-opacity="1"/><stop offset="100%" stop-color="#275AFF" stop-opacity="1"/></linearGradient><linearGradient x1="0.20553003251552582" y1="0.10843934118747711" x2="0.5900097548796194" y2="1.1237150480935048" id="master_svg2_539_370"><stop offset="0%" stop-color="#00C4FF" stop-opacity="1"/><stop offset="49.000000953674316%" stop-color="#0083FF" stop-opacity="1"/><stop offset="100%" stop-color="#275AFF" stop-opacity="1"/></linearGradient><linearGradient x1="0.20547500252723694" y1="0.10843934118747711" x2="0.5899335681006006" y2="1.1237335068065852" id="master_svg3_539_371"><stop offset="0%" stop-color="#00FFFF" stop-opacity="1"/><stop offset="1.9999999552965164%" stop-color="#03FDFF" stop-opacity="1"/><stop offset="41.999998688697815%" stop-color="#41C7F7" stop-opacity="1"/><stop offset="46.99999988079071%" stop-color="#40C1F8" stop-opacity="1"/><stop offset="81.99999928474426%" stop-color="#399AFD" stop-opacity="1"/><stop offset="100%" stop-color="#368BFF" stop-opacity="1"/></linearGradient></defs><g clip-path="url(#master_svg0_564_457)"><rect x="0" y="0" width="40" height="40" rx="0" fill="#FFFFFF" fill-opacity="1"/><g><g><g><path d="M7.94212,32L3.6761,32C1.759539,32,0.46542399999999995,29.9348,1.216682,28.0743L8.62943,9.71529C9.0494,8.675108,10.01738,8,11.0888,8L15.3535,8C17.2701,8,18.5642,10.06524,17.8129,11.92566L10.40154,30.2852C9.98171,31.3253,9.01363,32.000299999999996,7.94212,32Z" fill="url(#master_svg1_539_369)" fill-opacity="1" style="mix-blend-mode:passthrough"/></g><g><path d="M18.531954470825195,32L22.797954470825196,32C24.715054470825194,32,26.008654470825196,29.9348,25.257454470825195,28.0743L17.845114470825195,9.71529C17.425144470825195,8.675108,16.457164470825195,8,15.385704470825196,8L11.121054470825195,8C9.202657470825196,8,7.909002470825195,10.06524,8.659801470825196,11.92566L16.072554470825196,30.2852C16.492254470825195,31.3251,17.460274470825198,32,18.531954470825195,32Z" fill="url(#master_svg2_539_370)" fill-opacity="1" style="mix-blend-mode:passthrough"/></g><g><path d="M32.057808303833006,32L36.323808303833005,32C38.24040830383301,32,39.53450830383301,29.9348,38.78330830383301,28.0743L31.37051830383301,9.71529C30.95054830383301,8.675108,29.982568303833006,8,28.911098303833008,8L24.646458303833008,8C22.729899303833008,8,21.435785303833008,10.06524,22.187043303833008,11.92566L29.598418303833007,30.2852C30.01823830383301,31.3253,30.986308303833006,32.000299999999996,32.057808303833006,32Z" fill="url(#master_svg3_539_371)" fill-opacity="1" style="mix-blend-mode:passthrough"/></g></g></g></g></svg>